<?xml version="1.0" encoding="UTF-8"?>
<svg id="Calque_2" data-name="Calque 2" xmlns="http://www.w3.org/2000/svg" xmlns:xlink="http://www.w3.org/1999/xlink" viewBox="0 0 382.77 377.67">
  <defs>
    <style>
      .cls-1 {
        fill: #1f6866;
      }

      .cls-2 {
        fill: #fff;
      }

      .cls-3 {
        fill: url(#Dégradé_sans_nom_29);
      }

      .cls-4 {
        fill: url(#Dégradé_sans_nom_25);
      }
    </style>
    <linearGradient id="Dégradé_sans_nom_25" data-name="Dégradé sans nom 25" x1="389.78" y1="271.54" x2="282.76" y2="523.78" gradientTransform="translate(-115.91 -86.95) scale(.84)" gradientUnits="userSpaceOnUse">
      <stop offset="0" stop-color="#2a7973"/>
      <stop offset="1" stop-color="#1f515d"/>
    </linearGradient>
    <linearGradient id="Dégradé_sans_nom_29" data-name="Dégradé sans nom 29" x1="405.11" y1="112.24" x2="333.06" y2="279.37" gradientTransform="translate(-115.91 -86.95) scale(.84)" gradientUnits="userSpaceOnUse">
      <stop offset="0" stop-color="#359787"/>
      <stop offset="1" stop-color="#2d7e76"/>
    </linearGradient>
  </defs>
  <g id="Calque_1-2" data-name="Calque 1">
    <g id="Objet_génératif" data-name="Objet génératif">
      <g>
        <path class="cls-2" d="M61.15,113.52c38.34,24.75,50.01,8.86,87.66,1.68,3.72-.71,14.64-2.54,15.52-.84-8.21,3.61-15.25,12-20.97,18.87-3.27,3.93-26.99,35.51-27.68,37.75-4.51,14.62,24.8,15.25,33.97,13.84,25.19-3.88,40.93-32.93,66.27-29.36,19.92,2.81,69.05,49.04,81.78,65.85,7.64,10.08,19.36,22.66,5.87,33.13-7.06,3.63-11.46,4.45-18.87.84-11.54-5.63-38.37-39.16-44.88-41.52-2.84-1.03-4.99-.01-4.19,3.36,1.14,4.8,46.13,39.76,47.81,48.65,2.64,13.99-13.59,20.66-25.58,16.36-10.79-3.87-36.59-34.91-41.1-36.07-2.25-.58-5.12.04-4.61,2.94,7.74,10.29,37.56,29.49,36.07,42.78-1.93,17.21-22.03,8.81-30.62,2.94-3.93-2.69-19.54-20.37-20.97-20.13-8.31,1.37,15.64,19.57,16.36,23.91,3.99,23.98-32.62,9.63-33.55.84-.15-1.44,10.12-9.61,9.23-19.29-1.08-11.7-14.56-12.02-15.1-13.42-1.11-2.86,2.24-10.44-3.36-18.45-5.18-7.42-17.27-7.44-17.61-8.39-.68-1.89.62-7.05,0-9.23-3.37-11.74-19.79-16.53-28.52-7.97-.42-.26-1.29,1.77-2.52-.42-.46-.83-.8-5.86-2.52-8.39-13.87-20.39-35.27,4.03-44.46,16.36-22.4-15.95-41.01-30.72-70.46-31.46-.67-37.97,7.91-77.86,29.78-108.63,8.33,8.15,17.46,17.16,27.26,23.49Z"/>
        <path class="cls-2" d="M309.44,227.6c-16.51-22.58-64.88-73.56-91.85-78.85-33.16-6.5-58.27,47.13-93.53,25.58-.56-2.71,27.02-41.44,31.04-45.71,11.08-11.79,33.88-26.77,49.91-29.36,63.77-10.28,57.3,61.25,133.79-3.36,2.52-2.13,6.01-3.7,7.97-6.71,22.45,31.9,31.15,71.47,31.46,110.3-25.7,2.11-48.48,11.36-66.68,29.78-.65-.72-1.18-1.27-2.1-1.68Z"/>
        <path class="cls-1" d="M164.32,114.36c2.39,4.65-5.39,7.55-8.39,10.49-.14.14-3.76,4.49-.84,3.77-4.02,4.27-31.6,43-31.04,45.71,35.26,21.55,60.36-32.08,93.53-25.58,26.97,5.28,75.34,56.27,91.85,78.85-7.59-3.33-23.21-29.3-32.71-34.81-.98-.57-1.56-2.24-3.36-.84,7.98,11.95,55.45,49.49,30.2,62.49,13.49-10.47,1.77-23.05-5.87-33.13-12.74-16.81-61.86-63.04-81.78-65.85-25.33-3.57-41.07,25.48-66.27,29.36-9.17,1.41-38.48.78-33.97-13.84.69-2.24,24.41-33.81,27.68-37.75,5.72-6.88,12.76-15.27,20.97-18.87Z"/>
        <path class="cls-2" d="M98.06,248.57c-3.14,1.92-6.28,3.75-10.07,4.19-4.83-.44-8.42-1-10.9-5.87-1.55-3.04-2.38-6.26-1.68-9.65.44-2.11,19.98-22.77,22.23-23.91,11.21-5.68,23.12,3.41,18.87,15.52-.52,1.48-16.23,17.82-18.45,19.71Z"/>
        <path class="cls-1" d="M124.06,222.56c1.46.89,1.23-.63,2.52.42-9.28,8.82-17.54,18.85-28.52,25.58,2.22-1.89,17.93-18.23,18.45-19.71,4.25-12.11-7.66-21.2-18.87-15.52-2.25,1.14-21.79,21.8-22.23,23.91-.71,3.39.13,6.6,1.68,9.65-5.72.05-3.99-7.3-3.36-10.49.91-4.58,5.27-3.13.84-6.29,9.18-12.32,30.58-36.74,44.46-16.36,1.72,2.53,2.05,7.56,2.52,8.39,1.22,2.19,2.09.16,2.52.42Z"/>
        <g>
          <path class="cls-4" d="M347.18,80.8c108.3,151.76-49.24,346.79-221.86,285.19C12.42,325.71-36.36,188.21,30.11,86.68l-2.1,6.71c1.83.69,2.15-6.8,6.71-5.03l26.42,25.16c-9.8-6.33-18.94-15.33-27.26-23.49C12.02,120.8,3.44,160.69,4.11,198.66c29.45.73,48.06,15.5,70.46,31.46,4.43,3.16.07,1.71-.84,6.29-.63,3.19-2.37,10.54,3.36,10.49,2.48,4.87,6.07,5.43,10.9,5.87,6.87.63,5.22-.08,10.07-4.19,10.98-6.73,19.24-16.76,28.52-25.58-1.29-1.05-1.06.47-2.52-.42,8.73-8.56,25.15-3.77,28.52,7.97.62,2.18-.68,7.33,0,9.23.34.94,12.44.97,17.61,8.39,5.59,8.02,2.24,15.59,3.36,18.45.54,1.4,14.02,1.72,15.1,13.42.9,9.69-9.38,17.85-9.23,19.29.93,8.79,37.55,23.14,33.55-.84-.72-4.33-24.67-22.54-16.36-23.91,1.43-.24,17.04,17.44,20.97,20.13,8.58,5.88,28.68,14.27,30.62-2.94,1.49-13.29-28.33-32.49-36.07-42.78-.51-2.9,2.36-3.51,4.61-2.94,4.51,1.16,30.31,32.19,41.1,36.07,12,4.31,28.22-2.37,25.58-16.36-1.68-8.89-46.67-43.85-47.81-48.65-.8-3.37,1.36-4.39,4.19-3.36,6.5,2.36,33.33,35.89,44.88,41.52,7.42,3.61,11.81,2.8,18.87-.84,25.25-13-22.22-50.54-30.2-62.49,1.8-1.4,2.37.27,3.36.84,9.5,5.51,25.13,31.48,32.71,34.81.92.4,1.45.96,2.1,1.68,18.21-18.42,40.99-27.67,66.68-29.78-.31-38.83-9-78.4-31.46-110.3-1.96,3.01-5.45,4.58-7.97,6.71-.56-3.66,11.03-9.74,10.9-10.49-.05-.29-6.2-3.87-2.52-4.61Z"/>
          <path class="cls-2" d="M153.84,244.37c10.48-1.16,19.69,12.01,14.68,21.39-10.55,4.78-30.17,32.41-39.84,33.13-10.96.81-17.98-11.61-12.16-21.39,2.07-3.48,34.06-32.77,37.33-33.13Z"/>
          <path class="cls-2" d="M132.03,222.56c10.06-1.77,19.14,7.74,16.36,18.03-.68,2.53-35.61,35.09-38.17,35.65-11.46,2.51-20.27-7.09-16.36-18.03,1-2.79,35.14-35.12,38.17-35.65Z"/>
          <path class="cls-2" d="M171.45,271.21c9.05-.82,14.93,7.87,13,16.36-.62,2.74-18.86,21.26-21.39,22.23-9.53,3.63-19.97-3.44-18.03-13.84.78-4.21,21.92-24.34,26.42-24.74Z"/>
          <path class="cls-1" d="M98.06,248.57c-4.84,4.12-3.2,4.83-10.07,4.19,3.79-.45,6.93-2.27,10.07-4.19Z"/>
        </g>
        <path class="cls-3" d="M347.18,80.8c-3.68.75,2.47,4.32,2.52,4.61.13.75-11.46,6.82-10.9,10.49-76.49,64.6-70.02-6.92-133.79,3.36-16.03,2.58-38.83,17.57-49.91,29.36-2.92.72.7-3.64.84-3.77,3-2.93,10.78-5.83,8.39-10.49-.87-1.7-11.8.13-15.52.84-37.64,7.19-49.32,23.08-87.66-1.68l-26.42-25.16c-4.56-1.77-4.88,5.73-6.71,5.03l2.1-6.71c74.1-113.19,238.54-115.91,317.07-5.87Z"/>
      </g>
    </g>
  </g>
</svg>